#N canvas 962 74 956 1004 12;
#X obj 375 94 noise~;
#X obj 438 439 dac~;
#X obj 454 122 vline~;
#X obj 419 165 *~;
#X obj 420 267 +~;
#X obj 409 406 *~ 0.2;
#X obj 616 362 delwrite~ delay 40;
#X obj 618 248 lop~;
#X msg 454 94 1 \, 0 \$1;
#X obj 618 196 delread~ delay \$1;
#X obj 486 26 t f f;
#X obj 420 309 lop~;
#X obj 618 272 *~ 0.9;
#X obj 752 290 hsl 100 25 0.7 1.01 0 0 empty empty empty -2 -8 0 10
-262144 -1 -1 0 1;
#X floatatom 749 322 5 0 0 0 - - -;
#X obj 102 86 bng 25 250 50 0 empty empty empty 17 7 0 10 -262144 -1
-1;
#X obj 102 290 bng 15 250 50 0 empty empty empty 17 7 0 10 -262144
-1 -1;
#X obj 123 290 bng 15 250 50 0 empty empty empty 17 7 0 10 -262144
-1 -1;
#X obj 145 290 bng 15 250 50 0 empty empty empty 17 7 0 10 -262144
-1 -1;
#X obj 167 290 bng 15 250 50 0 empty empty empty 17 7 0 10 -262144
-1 -1;
#X obj 102 179 metro \$1;
#X obj 226 289 bng 15 250 50 0 empty empty empty 17 7 0 10 -262144
-1 -1;
#X obj 253 289 bng 15 250 50 0 empty empty empty 17 7 0 10 -262144
-1 -1;
#X obj 280 289 bng 15 250 50 0 empty empty empty 17 7 0 10 -262144
-1 -1;
#X msg 102 312 0, f 1;
#X msg 123 312 2, f 1;
#X msg 145 312 5, f 1;
#X msg 167 312 7, f 1;
#X msg 189 312 9, f 1;
#X obj 102 264 select 0 1 2 3 4;
#X obj 189 290 bng 15 250 50 0 empty empty empty 17 7 0 10 -262144
-1 -1;
#X obj 127 376 mtof;
#X floatatom 270 351 5 0 0 0 - - -;
#X floatatom 165 376 5 0 0 0 - - -;
#X obj 127 350 expr $f2 * 12 + $f1;
#X floatatom 241 406 5 0 0 0 - - -;
#X obj 127 405 expr 1000 / $f1;
#X obj 102 206 t b b b;
#X obj 151 111 bng 15 250 50 0 empty empty empty 17 7 0 10 -262144
-1 -1;
#X obj 178 111 bng 15 250 50 0 empty empty empty 17 7 0 10 -262144
-1 -1;
#X obj 205 111 bng 15 250 50 0 empty empty empty 17 7 0 10 -262144
-1 -1;
#X obj 427 349 freeverb~;
#X obj 409 377 +~;
#X obj 463 405 *~ 0.2;
#X obj 463 376 +~;
#X obj 151 83 select 0 1 2;
#X obj 226 263 select 0 1 2;
#X obj 756 218 hsl 100 25 1 50 0 0 empty empty empty -2 -8 0 10 -262144
-1 -1 0 1;
#X obj 716 256 * 10;
#X obj 716 57 t f b;
#X obj 748 110 select 0 1 2 3;
#X obj 748 135 bng 15 250 50 0 empty empty empty 17 7 0 10 -262144
-1 -1;
#X obj 772 135 bng 15 250 50 0 empty empty empty 17 7 0 10 -262144
-1 -1;
#X obj 796 135 bng 15 250 50 0 empty empty empty 17 7 0 10 -262144
-1 -1;
#X obj 819 135 bng 15 250 50 0 empty empty empty 17 7 0 10 -262144
-1 -1;
#X obj 226 234 random 3;
#X obj 102 235 random 4;
#X msg 226 311 3, f 1;
#X msg 251 311 4, f 1;
#X msg 280 311 5, f 1;
#X obj 748 84 random 20;
#X msg 770 158 8, f 2;
#X msg 748 158 6, f 1;
#X obj 141 54 random 4;
#X msg 151 139 150;
#X msg 186 138 300;
#X msg 222 138 450;
#X msg 797 158 30, f 2;
#X msg 824 158 50, f 2;
#X connect 0 0 3 0;
#X connect 2 0 3 1;
#X connect 3 0 4 0;
#X connect 4 0 6 0;
#X connect 4 0 11 0;
#X connect 5 0 1 0;
#X connect 7 0 12 0;
#X connect 8 0 2 0;
#X connect 9 0 7 0;
#X connect 10 0 8 0;
#X connect 10 1 9 0;
#X connect 11 0 41 0;
#X connect 11 0 42 0;
#X connect 11 0 44 0;
#X connect 12 0 4 1;
#X connect 13 0 14 0;
#X connect 14 0 12 1;
#X connect 15 0 64 0;
#X connect 15 0 20 0;
#X connect 16 0 24 0;
#X connect 17 0 25 0;
#X connect 18 0 26 0;
#X connect 19 0 27 0;
#X connect 20 0 37 0;
#X connect 21 0 57 0;
#X connect 22 0 58 0;
#X connect 23 0 59 0;
#X connect 24 0 34 0;
#X connect 25 0 34 0;
#X connect 26 0 34 0;
#X connect 27 0 34 0;
#X connect 28 0 34 0;
#X connect 29 0 16 0;
#X connect 29 1 17 0;
#X connect 29 2 18 0;
#X connect 29 3 19 0;
#X connect 29 4 30 0;
#X connect 30 0 28 0;
#X connect 31 0 33 0;
#X connect 31 0 36 0;
#X connect 31 0 49 0;
#X connect 34 0 31 0;
#X connect 34 0 32 0;
#X connect 36 0 10 0;
#X connect 36 0 35 0;
#X connect 37 0 56 0;
#X connect 37 1 55 0;
#X connect 37 2 63 0;
#X connect 38 0 64 0;
#X connect 39 0 65 0;
#X connect 40 0 66 0;
#X connect 41 0 42 1;
#X connect 41 1 44 1;
#X connect 42 0 5 0;
#X connect 43 0 1 1;
#X connect 44 0 43 0;
#X connect 45 0 38 0;
#X connect 45 1 39 0;
#X connect 45 2 40 0;
#X connect 46 0 21 0;
#X connect 46 1 22 0;
#X connect 46 2 23 0;
#X connect 47 0 48 1;
#X connect 48 0 7 1;
#X connect 48 0 11 1;
#X connect 49 0 48 0;
#X connect 49 1 60 0;
#X connect 50 0 51 0;
#X connect 50 1 52 0;
#X connect 50 2 53 0;
#X connect 50 3 54 0;
#X connect 51 0 62 0;
#X connect 52 0 61 0;
#X connect 53 0 67 0;
#X connect 54 0 68 0;
#X connect 55 0 46 0;
#X connect 56 0 29 0;
#X connect 57 0 34 1;
#X connect 58 0 34 1;
#X connect 59 0 34 1;
#X connect 60 0 50 0;
#X connect 61 0 47 0;
#X connect 62 0 47 0;
#X connect 63 0 45 0;
#X connect 64 0 20 1;
#X connect 65 0 20 1;
#X connect 66 0 20 1;
#X connect 67 0 47 0;
#X connect 68 0 47 0;
